<?xml version="1.0" encoding="UTF-8" standalone="no"?>
<!DOCTYPE svg PUBLIC "-//W3C//DTD SVG 1.1//EN" "http://www.w3.org/Graphics/SVG/1.1/DTD/svg11.dtd">
<svg width="100%" height="100%" viewBox="0 0 710 710" version="1.1" xmlns="http://www.w3.org/2000/svg" xmlns:xlink="http://www.w3.org/1999/xlink" xml:space="preserve" xmlns:serif="http://www.serif.com/" style="fill-rule:evenodd;clip-rule:evenodd;stroke-linejoin:round;stroke-miterlimit:2;">
    <g transform="matrix(4.16667,0,0,4.16667,596.777,331.626)">
        <path d="M0,-0.841C0.266,-1.931 6.072,-0.711 5.817,0.317C5.556,1.36 -0.269,0.253 0,-0.841M-10.662,18.778C-18.562,30.286 -48.079,31.218 -45.164,-2.497C-44.727,-7.532 -41.57,-10.499 -36.417,-11.41C-27.286,-12.28 -13.527,-9.519 -6.013,-4.273C-3.485,-2.502 -2.737,0.066 -3.421,3.115C-4.677,8.7 -7.254,13.8 -10.662,18.778M-59.627,-6.114C-72.817,24.754 -98.509,10.473 -100.082,-3.587C-100.745,-9.583 -100.618,-15.296 -99.096,-20.815C-98.266,-23.826 -96.396,-25.74 -93.332,-26.113C-84.67,-27.149 -53.101,-21.393 -59.627,-6.114M-105.929,-27.632C-105.669,-28.66 -99.975,-27.002 -100.252,-25.915C-100.532,-24.823 -106.193,-26.591 -105.929,-27.632M10.632,-2.123C10.631,-2.124 10.629,-2.126 10.629,-2.126C-5.078,-8.651 -12.824,-15.398 -35.157,-15.572C-40.039,-15.616 -44.652,-15.072 -49.394,-16.306C-54.158,-17.45 -57.973,-20.101 -62.3,-22.361C-81.825,-32.585 -92.118,-30.487 -109.025,-32.053C-109.025,-32.053 -109.028,-32.052 -109.03,-32.051C-109.589,-32.066 -111.023,-31.91 -109.984,-30.213C-109.98,-30.206 -109.976,-30.198 -109.972,-30.192C-109.744,-29.793 -109.325,-29.315 -108.621,-28.734C-108.622,-28.729 -110.454,-28.408 -110.411,-25.856C-110.385,-23.288 -106.996,-26.488 -104.752,-20.804C-103.691,-18.148 -104.673,-15.382 -103.256,-2.595C-101.884,9.738 -85.77,17.807 -76.94,16.356C-72.302,15.59 -68.565,12.691 -65.082,9.16C-57.841,1.808 -57.053,-5.911 -53.577,-5.521C-45.738,-4.63 -51.313,0.803 -47.541,13.547C-46.132,18.301 -44.2,22.619 -40.468,25.478C-33.681,30.669 -15.596,31.744 -8.329,21.147C-0.859,10.238 -0.711,7.727 1.564,5.786C6.22,1.829 7.702,6.248 8.934,3.994C10.174,1.761 8.709,0.618 8.71,0.611C9.605,0.432 10.2,0.206 10.588,-0.039C10.596,-0.043 10.602,-0.047 10.609,-0.051L10.609,-0.052C12.324,-1.06 11.133,-1.873 10.632,-2.123" style="fill:rgb(64,63,65);fill-rule:nonzero;"/>
    </g>
    <g transform="matrix(4.16667,0,0,4.16667,239.84,539.32)">
        <path d="M0,-7.336C9.203,-7.567 10.74,3.252 20.25,-0.876C31.695,-5.85 42.741,0.238 50.778,8.415C30.88,23.12 2.137,17.235 -10.103,-5.006C-7.009,-6.398 -3.705,-7.244 0,-7.336M26.202,20.867C46.423,20.867 63.551,7.741 69.61,-10.44C63.219,-12.236 56.113,-14.682 48.237,-17.952C26.749,-26.865 3.675,-30.456 -19.368,-29.241C-21.873,-1.87 -0.398,20.867 26.202,20.867" style="fill:rgb(64,63,65);fill-rule:nonzero;"/>
    </g>
    <g transform="matrix(4.16667,0,0,4.16667,292.022,94.1027)">
        <path d="M0,25.406C18.192,20.398 38.156,24.937 52.481,38.471C62.872,40.285 69.842,43.91 78.063,47.768C63.823,9.483 27.484,-12.663 27.484,-12.663C28.6,-2.212 30.906,1.129 30.906,1.129C2.922,-6.706 7.705,-22.362 7.705,-22.362C-3.767,-6.996 -1.931,4.096 1.634,10.705C-7.841,12.515 -16.63,16.258 -24.306,21.509C-16.336,21.906 -9.007,22.377 0,25.406" style="fill:rgb(64,63,65);fill-rule:nonzero;"/>
    </g>
    <g transform="matrix(4.16667,0,0,4.16667,636.645,583.501)">
        <path d="M0,-51.856C-1.982,-51.216 -3.501,-51.987 -4.229,-52.203C-6.362,-51.399 -6.258,-49.252 -12.963,-39.161C-12.834,-8.594 -37.575,16.169 -68.05,16.169C-109.401,16.169 -135.743,-27.655 -117.121,-64.011C-118.461,-76.993 -117.281,-79.125 -118.809,-80.861C-119.3,-80.964 -120.712,-81.054 -122.044,-81.993C-131.481,-70.188 -137.124,-55.219 -137.124,-38.926C-137.124,-0.786 -106.198,30.137 -68.05,30.137C-27.991,30.137 7.184,-4.589 0,-51.856" style="fill:rgb(64,63,65);fill-rule:nonzero;"/>
    </g>
    <g transform="matrix(-2.94628,2.94628,2.94628,2.94628,503.044,421.492)">
        <path d="M-23.224,-16.186L7.65,-16.186C8.121,-14.39 8.265,-12.675 8.142,-11.057L-25.607,-11.057C-24.96,-12.741 -24.151,-14.47 -23.224,-16.186" style="fill:rgb(236,68,86);fill-rule:nonzero;"/>
    </g>
    <g transform="matrix(-0.986005,-4.04832,-4.04832,0.986005,416.319,304.091)">
        <path d="M-4.493,-21.418C-2.2,-16.744 -0.513,-11.723 0.112,-7.532C0.406,-2.282 -2.372,-0.722 -4.493,-0.006C-10.187,1.913 -14.918,2.479 -18.796,2.095L-4.493,-21.418Z" style="fill:rgb(236,68,86);fill-rule:nonzero;"/>
    </g>
    <g transform="matrix(-2.94628,2.94628,2.94628,2.94628,526.295,449.77)">
        <path d="M-27.574,-16.316L6.584,-16.316C4.018,-8.681 -4.601,-4.11 -10.657,-5.235C-16.85,-6.395 -21.669,-8.158 -25.819,-10.785C-28.395,-12.416 -28.157,-13.974 -27.574,-16.316" style="fill:rgb(236,68,86);fill-rule:nonzero;"/>
    </g>
    <g transform="matrix(2.94628,-2.94628,-2.94628,-2.94628,238.162,338.51)">
        <path d="M-5.217,9.66L22.566,9.66C19.826,14.819 16.288,19.628 12.685,22.458C11.706,23.227 10.397,23.837 8.123,22.547C2.028,19.087 -3.814,12.627 -5.217,9.66" style="fill:rgb(12,190,220);fill-rule:nonzero;"/>
    </g>
    <g transform="matrix(-2.94628,2.94628,2.94628,2.94628,269.854,363.614)">
        <path d="M-23.155,-15.813L7.446,-15.813C7.753,-14.185 7.826,-12.439 7.642,-10.684L-25.143,-10.683C-24.602,-12.353 -23.932,-14.081 -23.155,-15.813" style="fill:rgb(12,190,220);fill-rule:nonzero;"/>
    </g>
    <g transform="matrix(-2.92231,-2.97005,-2.97005,2.92231,217.237,333.273)">
        <path d="M-6.906,-29.99C-6.817,-29.97 -6.727,-29.948 -6.638,-29.928L-6.906,3.094C-15.165,0.462 -21.879,-8.42 -14.712,-25.878C-13.861,-27.949 -12.126,-30.622 -6.906,-29.99" style="fill:rgb(12,190,220);fill-rule:nonzero;"/>
    </g>
</svg>
